<?xml version="1.0" encoding="utf-8"?>
<!-- Generator: Adobe Illustrator 24.1.0, SVG Export Plug-In . SVG Version: 6.00 Build 0)  -->
<svg version="1.1"
	 id="svg2" xmlns:cc="http://creativecommons.org/ns#" xmlns:dc="http://purl.org/dc/elements/1.1/" xmlns:inkscape="http://www.inkscape.org/namespaces/inkscape" xmlns:rdf="http://www.w3.org/1999/02/22-rdf-syntax-ns#" xmlns:sodipodi="http://sodipodi.sourceforge.net/DTD/sodipodi-0.dtd" xmlns:svg="http://www.w3.org/2000/svg"
	 xmlns="http://www.w3.org/2000/svg" xmlns:xlink="http://www.w3.org/1999/xlink" x="0px" y="0px" viewBox="0 0 32 32"
	 style="enable-background:new 0 0 32 32;" xml:space="preserve">
<style type="text/css">
	.st0{fill:none;}
</style>
<g id="background">
	<rect x="1" y="1" class="st0" width="32" height="32"/>
</g>
<g id="book_x5F_sans">
	<g>
		<path d="M29,0v2h-2v2h2v28H5c0,0-2,0-2-2V3c0,0,0,0,0,0c0-1.4,0.8-2.3,1.6-2.6C5.3,0,5.9,0,6,0H29 M6,4C6,4,6,4,6,4h19V2H6
			c0,0,0,0-0.1,0C5.7,2,5.6,2.1,5.4,2.1C5.2,2.3,5,2.4,5,3c0,0.5,0.1,0.6,0.3,0.7C5.4,3.9,5.7,4,5.9,4C5.9,4,6,4,6,4 M7,30h20V6H7
			L7,30"/>
	</g>
</g>
</svg>
