<?xml version="1.0" encoding="utf-8"?>
<!-- Generator: Adobe Illustrator 24.1.0, SVG Export Plug-In . SVG Version: 6.00 Build 0)  -->
<svg version="1.1" id="Layer_1" xmlns="http://www.w3.org/2000/svg" xmlns:xlink="http://www.w3.org/1999/xlink" x="0px" y="0px"
	 viewBox="0 0 512 512" style="enable-background:new 0 0 512 512;" xml:space="preserve">
<g id="_1">
	<path d="M301.4,512c-7.3,0-14-4.2-17.2-10.8l-89.8-184.6L9.9,226.9c-9.5-4.6-13.4-16.1-8.8-25.5c2.1-4.3,5.7-7.6,10.1-9.4
		L484.9,1.4c9.8-3.9,20.9,0.8,24.9,10.6c1.8,4.6,1.8,9.7,0,14.3L319.2,500c-2.8,7-9.5,11.7-17.1,12L301.4,512z M65.3,211.4
		l151.8,73.9c3.8,1.9,7,5,8.8,8.8l73.9,151.8L457.5,53.5L65.3,211.4z"/>
	<path d="M208.8,321.5c-10.6,0-19.1-8.6-19.1-19.1c0-5.1,2-9.9,5.6-13.5L478.5,5.6c7.5-7.5,19.6-7.5,27,0c7.5,7.5,7.5,19.6,0,27l0,0
		L222.3,315.9C218.7,319.5,213.8,321.5,208.8,321.5z"/>
</g>
</svg>
