<?xml version="1.0" encoding="utf-8"?>
<!-- Generator: Adobe Illustrator 24.1.0, SVG Export Plug-In . SVG Version: 6.00 Build 0)  -->
<svg version="1.1" id="Layer_1" xmlns="http://www.w3.org/2000/svg" xmlns:xlink="http://www.w3.org/1999/xlink" x="0px" y="0px"
	 viewBox="0 0 300 300" style="enable-background:new 0 0 300 300;" xml:space="preserve">
<style type="text/css">
	.st0{fill:#806F80;}
	.st1{fill:#D4B2D4;}
	.st2{fill:#B9A1B9;}
</style>
<path d="M205.5,91.8c-15.3,24.7-30.5,49.4-45.7,74.1c-1,1.6-2.1,2.5-4.1,2.4c-4.5-0.2-9.1-0.1-13.6,0c-1.9,0.1-3.2-0.6-4.2-2.2
	c-10.6-16.5-21.2-32.8-31.9-49.2c-4.9-7.4-9.6-15-14.5-22.5c-1.5-2.3-1-3.8,0.6-5.6c3.7-4.1,7.1-8.3,10.9-12.3
	c0.8-0.8,2.2-1.4,3.3-1.4c28.4-0.1,56.8-0.1,85.2,0c1.2,0,2.8,0.8,3.5,1.7C198.6,81.7,201.9,86.6,205.5,91.8z M140.1,164.9
	c11.9-19.7,23.6-38.9,35.6-58.7c-4.7,0-8.7,0.1-12.6-0.1c-1.9-0.1-2.9,0.6-3.8,2.1c-5,7.9-10,15.7-15,23.6c-1.2,1.9-2.6,3.8-4.2,6
	c-12-20.2-23.7-39.8-35.4-59.7c-3.3,3.8-6.2,7.5-9.5,10.8c-2.1,2-2.1,3.4-0.6,5.7c6.4,9.7,12.8,19.4,19,29.1
	C122.3,137.2,131,150.8,140.1,164.9z M179.5,104.1c-12.6,20.8-24.9,41.1-37.5,61.9c5.1,0,9.3,0.1,13.5-0.1c0.8-0.1,2-0.8,2.5-1.6
	c6.2-9.7,12.2-19.4,18.2-29.2c6.7-10.8,13.3-21.5,20-32.3c1.9-3.2,3.8-6.3,5.9-10c-23.9,0-47.2,0-70.9,0c1.9,3,3.9,5.6,5.2,8.5
	c1.1,2.4,2.7,2.9,5,2.8c8-0.1,15.9-0.1,24-0.1C169.9,104.1,174.4,104.1,179.5,104.1z M140.1,133.9c2.4-3.8,4.7-7.2,6.7-10.7
	c0.3-0.6,0-1.9-0.4-2.5c-4.7-7.3-9.5-14.6-14.2-21.9c-1.7-2.6-3.2-5.2-5.1-8.4c25.3,0,49.9,0,74.9,0c-2.9-4-5.4-7.4-7.8-10.9
	c-1.1-1.7-2.3-2.4-4.5-2.4c-26.6,0.1-53.3,0.1-79.9,0.1c-0.9,0-1.7,0.1-3,0.3C118,96.4,128.9,114.9,140.1,133.9z M148.9,120.7
	c3.1-5.1,5.8-9.6,8.7-14.3c-6,0-11.7,0-17.9,0C142.8,111.3,145.7,115.7,148.9,120.7z"/>
<path class="st0" d="M140.1,164.9c-9.1-14.1-17.7-27.6-26.5-41.1c-6.3-9.7-12.6-19.4-19-29.1C93,92.5,93.1,91,95.1,89
	c3.4-3.3,6.2-7,9.5-10.8C116.3,98,128,117.7,139.9,138c1.6-2.3,3-4.1,4.2-6c5.1-7.8,10-15.7,15-23.6c1-1.5,1.9-2.3,3.8-2.1
	c4,0.2,8,0.1,12.6,0.1C163.7,125.9,152,145.2,140.1,164.9z"/>
<path class="st0" d="M179.5,104.1c-5.2,0-9.7,0-14.2,0c-8,0-15.9-0.1-24,0.1c-2.4,0.1-3.9-0.4-5-2.8c-1.3-2.9-3.3-5.4-5.2-8.5
	c23.8,0,47,0,70.9,0c-2.1,3.6-4,6.8-5.9,10c-6.6,10.8-13.3,21.6-20,32.3c-6,9.8-12.1,19.5-18.2,29.2c-0.5,0.8-1.6,1.6-2.5,1.6
	c-4.2,0.1-8.4,0.1-13.5,0.1C154.7,145.1,166.9,124.9,179.5,104.1z"/>
<path class="st1" d="M140.1,133.9c-11.2-19-22.2-37.6-33.3-56.6c1.2-0.1,2.1-0.3,3-0.3c26.6,0,53.3,0,79.9-0.1
	c2.1,0,3.3,0.7,4.5,2.4c2.3,3.6,4.9,7,7.8,10.9c-25,0-49.6,0-74.9,0c1.9,3.2,3.4,5.9,5.1,8.4c4.7,7.3,9.5,14.6,14.2,21.9
	c0.5,0.7,0.8,1.9,0.4,2.5C144.8,126.7,142.5,130.1,140.1,133.9z"/>
<path d="M94.5,208.2c15.3-24.7,30.5-49.4,45.7-74.1c1-1.6,2.1-2.5,4.1-2.4c4.5,0.2,9.1,0.1,13.6,0c1.9-0.1,3.2,0.6,4.2,2.2
	c10.6,16.5,21.2,32.8,31.9,49.2c4.9,7.4,9.6,15,14.5,22.5c1.5,2.3,1,3.8-0.6,5.6c-3.7,4.1-7.1,8.3-10.9,12.3
	c-0.8,0.8-2.2,1.4-3.3,1.4c-28.4,0.1-56.8,0.1-85.2,0c-1.2,0-2.8-0.8-3.5-1.7C101.4,218.3,98.1,213.4,94.5,208.2z M159.9,135.1
	c-11.9,19.7-23.6,38.9-35.6,58.7c4.7,0,8.7-0.1,12.6,0.1c1.9,0.1,2.9-0.6,3.8-2.1c5-7.9,10-15.7,15-23.6c1.2-1.9,2.6-3.8,4.2-6
	c12,20.2,23.7,39.8,35.4,59.7c3.3-3.8,6.2-7.5,9.5-10.8c2.1-2,2.1-3.4,0.6-5.7c-6.4-9.7-12.8-19.4-19-29.1
	C177.7,162.8,169,149.2,159.9,135.1z M120.5,195.9c12.6-20.8,24.9-41.1,37.5-61.9c-5.1,0-9.3-0.1-13.5,0.1c-0.8,0.1-2,0.8-2.5,1.6
	c-6.2,9.7-12.2,19.4-18.2,29.2c-6.7,10.8-13.3,21.5-20,32.3c-1.9,3.2-3.8,6.3-5.9,10c23.9,0,47.2,0,70.9,0c-1.9-3-3.9-5.6-5.2-8.5
	c-1.1-2.4-2.7-2.9-5-2.8c-8,0.1-15.9,0.1-24,0.1C130.1,195.9,125.6,195.9,120.5,195.9z M159.9,166.1c-2.4,3.8-4.7,7.2-6.7,10.7
	c-0.3,0.6,0,1.9,0.4,2.5c4.7,7.3,9.5,14.6,14.2,21.9c1.7,2.6,3.2,5.2,5.1,8.4c-25.3,0-49.9,0-74.9,0c2.9,4,5.4,7.4,7.8,10.9
	c1.1,1.7,2.3,2.4,4.5,2.4c26.6-0.1,53.3-0.1,79.9-0.1c0.9,0,1.7-0.1,3-0.3C182,203.6,171.1,185.1,159.9,166.1z M151.1,179.3
	c-3.1,5.1-5.8,9.6-8.7,14.3c6,0,11.7,0,17.9,0C157.2,188.7,154.3,184.3,151.1,179.3z"/>
<path class="st1" d="M159.9,135.1c9.1,14.1,17.7,27.6,26.5,41.1c6.3,9.7,12.6,19.4,19,29.1c1.6,2.3,1.5,3.7-0.6,5.7
	c-3.4,3.3-6.2,7-9.5,10.8C183.7,202,172,182.3,160.1,162c-1.6,2.3-3,4.1-4.2,6c-5.1,7.8-10,15.7-15,23.6c-1,1.5-1.9,2.3-3.8,2.1
	c-4-0.2-8-0.1-12.6-0.1C136.3,174.1,148,154.8,159.9,135.1z"/>
<path class="st2" d="M120.5,195.9c5.2,0,9.7,0,14.2,0c8,0,15.9,0.1,24-0.1c2.4-0.1,3.9,0.4,5,2.8c1.3,2.9,3.3,5.4,5.2,8.5
	c-23.8,0-47,0-70.9,0c2.1-3.6,4-6.8,5.9-10c6.6-10.8,13.3-21.6,20-32.3c6-9.8,12.1-19.5,18.2-29.2c0.5-0.8,1.6-1.6,2.5-1.6
	c4.2-0.1,8.4-0.1,13.5-0.1C145.3,154.9,133.1,175.1,120.5,195.9z"/>
<path class="st0" d="M159.9,166.1c11.2,19,22.2,37.6,33.3,56.6c-1.2,0.1-2.1,0.3-3,0.3c-26.6,0-53.3,0-79.9,0.1
	c-2.1,0-3.3-0.7-4.5-2.4c-2.3-3.6-4.9-7-7.8-10.9c25,0,49.6,0,74.9,0c-1.9-3.2-3.4-5.9-5.1-8.4c-4.7-7.3-9.5-14.6-14.2-21.9
	c-0.5-0.7-0.8-1.9-0.4-2.5C155.2,173.3,157.5,169.9,159.9,166.1z"/>
<path class="st2" d="M142.4,159.7l-6.9,7.4l-2.3,6.3c-1.6-2.3-10.4-7.9-8.3-9.9c3.4-3.3,7.1-14.1,10.4-17.9l5.2-6.8l3.4-6.9
	c5.1-7.8,10-15.7,15-23.6c1-1.5,1.9-2.3,3.8-2.1c4,0.2,8,0.1,12.6,0.1C163.7,125.9,154.3,140,142.4,159.7z"/>
</svg>
