<?xml version="1.0" encoding="utf-8"?>
<!-- Generator: Adobe Illustrator 24.1.0, SVG Export Plug-In . SVG Version: 6.00 Build 0)  -->
<svg version="1.1" id="Layer_1" xmlns="http://www.w3.org/2000/svg" xmlns:xlink="http://www.w3.org/1999/xlink" x="0px" y="0px"
	 viewBox="0 0 300 300" style="enable-background:new 0 0 300 300;" xml:space="preserve">
<style type="text/css">
	.st0{fill:#D4B2D4;}
	.st1{fill:#B9A1B9;}
	.st2{fill:#806F80;}
</style>
<path d="M0,228C40,163.3,79.7,98.9,119.3,34.4c2.5-4.2,5.4-6.4,10.7-6.3c11.8,0.5,23.7,0.3,35.5,0c5.1-0.2,8.3,1.5,11,5.8
	c27.6,43,55.5,85.6,83.3,128.6c12.7,19.5,25,39.3,37.9,58.7c3.9,5.9,2.7,10-1.7,14.7c-9.6,10.7-18.6,21.7-28.4,32.2
	c-2,2.2-5.8,3.7-8.6,3.7c-74.1,0.2-148.4,0.2-222.5,0c-3,0-7.3-2-9.1-4.6C18,254.5,9.4,241.5,0,228z M170.8,37.1
	C139.6,88.6,109,138.8,77.7,190.4c12.2,0,22.7-0.3,33,0.2c4.9,0.2,7.6-1.7,10-5.6c13-20.6,26.1-41.1,39.3-61.6
	c3.2-5.1,6.8-9.8,11-15.7c31.5,52.8,61.9,104.1,92.4,155.8c8.6-10,16.1-19.6,24.9-28.3c5.4-5.2,5.6-9,1.5-14.9
	c-16.8-25.2-33.3-50.6-49.7-76C217.3,109.4,194.6,74,170.8,37.1z M67.7,196c33-54.3,65-107.3,98-161.6c-13.4,0-24.4-0.2-35.4,0.2
	c-2.2,0.2-5.2,2-6.6,4.1C107.7,64,91.9,89.4,76.2,114.9c-17.4,28.1-34.9,56.2-52.1,84.4c-5.1,8.3-9.8,16.6-15.4,26.1
	c62.4,0,123.2,0,185.3,0c-5.1-8-10.2-14.7-13.5-22.2c-2.9-6.3-6.9-7.4-13-7.3c-20.8,0.3-41.6,0.2-62.6,0.2
	C92.9,196,81.3,196,67.7,196z M170.8,118c-6.3,10-12.2,18.8-17.4,27.9c-0.8,1.5,0,4.9,1,6.6c12.2,19.1,24.7,38.1,37.1,57.2
	c4.4,6.8,8.3,13.7,13.4,22c-66,0-130.3,0-195.6,0c7.4,10.3,14,19.3,20.3,28.6c2.9,4.6,6.1,6.3,11.7,6.3
	c69.5-0.2,139.3-0.2,208.8-0.2c2.4,0,4.6-0.3,8-0.7C228.5,216.1,200.1,167.7,170.8,118z M147.8,152.5c-8.1,13.4-15.2,25-22.7,37.4
	c15.7,0,30.5,0,46.7,0C163.7,177.2,156.2,165.7,147.8,152.5z"/>
<path class="st0" d="M170.8,37.1c23.7,36.9,46.4,72.1,69.2,107.3c16.4,25.4,33,50.8,49.7,76c4.1,5.9,3.9,9.6-1.5,14.9
	c-8.8,8.6-16.2,18.3-24.9,28.3c-30.5-51.8-60.9-103.1-92.1-156c-4.2,5.9-7.8,10.7-11,15.7c-13.2,20.5-26.2,41.1-39.3,61.6
	c-2.5,3.9-5.1,5.9-10,5.6c-10.3-0.5-20.8-0.2-33-0.2C109.2,139,139.6,88.6,170.8,37.1z"/>
<path class="st1" d="M67.7,196c13.5,0,25.4,0,37.1,0c20.8,0,41.6,0.2,62.6-0.2c6.3-0.2,10.2,1,13,7.3c3.4,7.4,8.6,14.2,13.5,22.2
	c-62.1,0-122.8,0-185.3,0c5.6-9.5,10.3-17.8,15.4-26.1c17.3-28.1,34.7-56.3,52.1-84.4c15.7-25.6,31.6-50.9,47.5-76.3
	c1.2-2,4.2-4.1,6.6-4.1c11-0.3,21.8-0.2,35.4-0.2C132.7,88.7,100.7,141.7,67.7,196z"/>
<path class="st2" d="M170.8,118c29.3,49.7,57.9,98.1,87,147.9c-3.2,0.3-5.6,0.7-8,0.7c-69.5,0-139.3,0-208.8,0.2
	c-5.6,0-8.6-1.9-11.7-6.3c-6.1-9.3-12.9-18.3-20.3-28.6c65.3,0,129.6,0,195.6,0c-5.1-8.5-9-15.4-13.4-22
	c-12.4-19.1-24.7-38.1-37.1-57.2c-1.2-1.9-2-5.1-1-6.6C158.6,136.8,164.5,128,170.8,118z"/>
</svg>
