<?xml version="1.0" encoding="utf-8"?>
<!-- Generator: Adobe Illustrator 24.1.0, SVG Export Plug-In . SVG Version: 6.00 Build 0)  -->
<svg version="1.1" id="Layer_1" xmlns="http://www.w3.org/2000/svg" xmlns:xlink="http://www.w3.org/1999/xlink" x="0px" y="0px"
	 viewBox="0 0 300 300" style="enable-background:new 0 0 300 300;" xml:space="preserve">
<style type="text/css">
	.st0{fill:#FFFFFF;stroke:#252525;stroke-width:3;stroke-miterlimit:10;}
</style>
<g id="mywkne.tif">
	<g>
		<g>
			<path class="st0" d="M163.1,65c0.7,0.2,1,0.7,1.5,1.1c5.6,5.4,10.4,11.4,14.9,17.8c5.6,8.1,10.2,16.6,13.8,25.7
				c2.6,6.5,4.6,13.2,6,20.1c0.8,3.8,1.4,7.6,1.7,11.4c0.5,5,0.7,10.1,0.5,15.1c0,0.1,0,0.1,0,0.2c-11,0-21.9,0-32.9,0
				c0-0.7,0.1-1.3,0.1-1.9c0.1-2,0-4-0.1-5.9c-0.3-3.6-0.8-7.1-1.5-10.6c-1.2-5.6-3-10.9-5.4-16.1c-2.7-6-6.1-11.6-10-16.8
				c-4.1-5.5-8.8-10.5-13.9-15.1c-7.9-7.1-16.6-13-25.8-18c-4.3-2.4-8.7-4.5-13.1-6.5c-0.2-0.1-0.4-0.2-0.5-0.3c0.1,0,0.2,0,0.4,0
				c6.2,0,12.4,0,18.7,0c15,0,30,0,44.9,0c0.2,0,0.4,0,0.5-0.1C162.9,65,163,65,163.1,65z"/>
			<path class="st0" d="M164.9,207.6c-13.7,9.1-27.3,18.3-41,27.4c0-34.9,0-69.7,0-104.6c0,0,0,0,0.1,0
				C137.6,156.1,151.2,181.8,164.9,207.6z"/>
		</g>
	</g>
</g>
</svg>
