<?xml version="1.0" encoding="utf-8"?>
<!-- Generator: Adobe Illustrator 24.1.0, SVG Export Plug-In . SVG Version: 6.00 Build 0)  -->
<svg version="1.1" id="Layer_1" xmlns="http://www.w3.org/2000/svg" xmlns:xlink="http://www.w3.org/1999/xlink" x="0px" y="0px"
	 viewBox="0 0 900 600" style="enable-background:new 0 0 900 600;" xml:space="preserve">
<style type="text/css">
	.st0{fill:#D4B2D4;}
	.st1{fill:#B9A1B9;}
	.st2{fill:#806F80;}
</style>
<image style="overflow:visible;" width="626" height="443" xlink:href="flow-background.jpg"  transform="matrix(1.4377 0 0 1.3544 0 0)">
</image>
<g>
	<path d="M101.4,384.1c42.6-69,85-137.6,127.2-206.4c2.7-4.5,5.8-6.8,11.4-6.7c12.6,0.5,25.3,0.3,37.8,0c5.4-0.2,8.8,1.6,11.7,6.2
		c29.4,45.8,59.2,91.3,88.8,137.1c13.5,20.8,26.7,41.9,40.4,62.6c4.2,6.3,2.9,10.7-1.8,15.7c-10.2,11.4-19.8,23.1-30.3,34.3
		c-2.1,2.3-6.2,3.9-9.2,3.9c-79,0.2-158.2,0.2-237.2,0c-3.2,0-7.8-2.1-9.7-4.9C120.6,412.4,111.5,398.5,101.4,384.1z M283.5,180.6
		c-33.3,54.9-65.9,108.4-99.3,163.4c13,0,24.2-0.3,35.2,0.2c5.2,0.2,8.1-1.8,10.7-6c13.9-22,27.8-43.8,41.9-65.7
		c3.4-5.4,7.2-10.4,11.7-16.7c33.6,56.3,66,111,98.5,166.1c9.2-10.7,17.2-20.9,26.5-30.2c5.8-5.5,6-9.6,1.6-15.9
		c-17.9-26.9-35.5-53.9-53-81C333.1,257.7,308.9,220,283.5,180.6z M173.6,350c35.2-57.9,69.3-114.4,104.5-172.3
		c-14.3,0-26-0.2-37.7,0.2c-2.3,0.2-5.5,2.1-7,4.4c-17.1,27-33.9,54.1-50.6,81.2c-18.6,30-37.2,59.9-55.5,90
		c-5.4,8.8-10.4,17.7-16.4,27.8c66.5,0,131.4,0,197.6,0c-5.4-8.5-10.9-15.7-14.4-23.7c-3.1-6.7-7.4-7.9-13.9-7.8
		c-22.2,0.3-44.4,0.2-66.7,0.2C200.5,350,188.1,350,173.6,350z M283.5,266.9c-6.7,10.7-13,20-18.6,29.7c-0.9,1.6,0,5.2,1.1,7
		c13,20.4,26.3,40.6,39.6,61c4.7,7.2,8.8,14.6,14.3,23.5c-70.4,0-138.9,0-208.5,0c7.9,11,14.9,20.6,21.6,30.5
		c3.1,4.9,6.5,6.7,12.5,6.7c74.1-0.2,148.5-0.2,222.6-0.2c2.6,0,4.9-0.3,8.5-0.7C345.1,371.5,314.8,319.9,283.5,266.9z M259,303.6
		c-8.6,14.3-16.2,26.7-24.2,39.9c16.7,0,32.5,0,49.8,0C276,330,268,317.7,259,303.6z"/>
	<path class="st0" d="M283.5,180.6C308.8,220,333,257.5,357.3,295c17.5,27.1,35.2,54.2,53,81c4.4,6.3,4.2,10.2-1.6,15.9
		c-9.4,9.2-17.3,19.5-26.5,30.2c-32.5-55.2-64.9-109.9-98.2-166.3c-4.5,6.3-8.3,11.4-11.7,16.7c-14.1,21.9-27.9,43.8-41.9,65.7
		c-2.7,4.2-5.4,6.3-10.7,6c-11-0.5-22.2-0.2-35.2-0.2C217.9,289.3,250.3,235.5,283.5,180.6z"/>
	<path class="st1" d="M173.6,350c14.4,0,27.1,0,39.6,0c22.2,0,44.4,0.2,66.7-0.2c6.7-0.2,10.9,1.1,13.9,7.8
		c3.6,7.9,9.2,15.1,14.4,23.7c-66.2,0-130.9,0-197.6,0c6-10.1,11-19,16.4-27.8c18.4-30,37-60,55.5-90c16.7-27.3,33.7-54.3,50.6-81.3
		c1.3-2.1,4.5-4.4,7-4.4c11.7-0.3,23.2-0.2,37.7-0.2C242.9,235.6,208.8,292.1,173.6,350z"/>
	<path class="st2" d="M283.5,266.9c31.2,53,61.7,104.6,92.8,157.7c-3.4,0.3-6,0.7-8.5,0.7c-74.1,0-148.5,0-222.6,0.2
		c-6,0-9.2-2-12.5-6.7c-6.5-9.9-13.8-19.5-21.6-30.5c69.6,0,138.2,0,208.5,0c-5.4-9.1-9.6-16.4-14.3-23.5
		c-13.2-20.4-26.3-40.6-39.6-61c-1.3-2-2.1-5.4-1.1-7C270.5,286.9,276.8,277.5,283.5,266.9z"/>
</g>
<image style="overflow:visible;" width="2000" height="2000" xlink:href="raiden-network-token-rdn-logo.png"  transform="matrix(0.15 0 0 0.15 498.5568 150)">
</image>
</svg>
