<?xml version="1.0" encoding="utf-8"?>
<!-- Generator: Adobe Illustrator 24.1.0, SVG Export Plug-In . SVG Version: 6.00 Build 0)  -->
<svg version="1.1" id="Layer_1" xmlns="http://www.w3.org/2000/svg" xmlns:xlink="http://www.w3.org/1999/xlink" x="0px" y="0px"
	 viewBox="0 0 300 300" style="enable-background:new 0 0 300 300;" xml:space="preserve">
<style type="text/css">
	.st0{fill:#FFFFFF;}
</style>
<g id="TndWNQ_1_">
	<g>
		<g>
			<path class="st0" d="M-200-29c0-61.3,0-122.7,0-184c216.3,0,432.7,0,649,0c0,61.3,0,122.7,0,184C232.7-29,16.3-29-200-29z
				 M251.3-208c-0.2,1.1-0.4,1.6-0.4,2.1c0,39.1-0.1,78.3,0.1,117.4c0,1.7,1.2,3.8,2.4,5c6.8,6.8,13.8,13.3,20.8,19.9
				c0.7,0.7,2,1.1,3,1.1c2.8,0,5.6-0.6,8.4-0.6c46.5,0,92.9,0,139.4,0c1.9,0,3.9,0,5.8,0c0.2-1.3,0.4-1.9,0.4-2.6c0-37,0-74,0-110.9
				c0-1.5-0.7-3.3-1.7-4.4c-7.1-7.9-14.6-15.4-21.5-23.5c-2.3-2.7-4.6-3.6-8-3.6c-47.7,0.1-95.3,0.1-143,0.1
				C255.2-208,253.4-208,251.3-208z M194.2-149.1c-6.8-4.5-14.5-9.7-22.3-14.7c-21.9-14.1-43.9-27.9-65.6-42.3
				c-4.5-3-7.8-3.1-12.5-1.3c-12.4,4.7-24.9,9-37.4,13.4c-8.4,3-16.7,6.1-24.8,9c0.2,3,0.4,5.4,0.4,7.9c0,35,0.1,70-0.1,104.9
				c0,4.1,1.4,6.2,4.8,8.2c5.4,3.1,10.5,6.8,15.9,10.4c21.8-11.1,44.1-22.6,66.5-33.9c23.6-11.9,47.2-23.7,70.9-35.4
				c3.1-1.5,4.4-3.3,4.2-6.8C193.9-136,194.2-142.3,194.2-149.1z M-196.6-81.8c5.5,8,10.6,15.8,16.1,23.2c1.1,1.5,3.5,2.7,5.4,2.7
				c43.8,0.1,87.7,0.1,131.5,0c1.7,0,4-0.9,5.1-2.2c5.7-6.2,11.1-12.7,16.8-19c2.6-2.8,3.3-5.2,1-8.7c-7.6-11.5-14.9-23.1-22.4-34.7
				c-16.4-25.3-32.8-50.6-49.2-76c-1.6-2.5-3.4-3.5-6.5-3.4c-7,0.2-14,0.3-21,0c-3.1-0.1-4.8,1.2-6.3,3.7
				C-149.6-158.1-173.1-120-196.6-81.8z"/>
			<path d="M251.3-208c2.1,0,3.9,0,5.7,0c47.6,0,95.3,0,142.9-0.1c3.4,0,5.6,0.8,8,3.6c6.9,8,14.4,15.6,21.5,23.5
				c1,1.1,1.7,2.9,1.7,4.4c0.1,37,0.1,74,0,110.9c0,0.6-0.2,1.3-0.4,2.6c-2,0-3.9,0-5.8,0c-46.5,0-92.9,0-139.4,0
				c-2.8,0-5.6,0.5-8.4,0.6c-1,0-2.3-0.4-3-1.1c-7-6.6-14-13.1-20.8-19.9c-1.3-1.2-2.4-3.3-2.4-5c-0.1-39.1-0.1-78.3-0.1-117.4
				C250.9-206.4,251.1-206.9,251.3-208z M278.5-175.8c-0.4,0.2-0.8,0.4-1.2,0.7c0,1.5,0,2.9,0,4.4c0,32.8,0.1,65.6-0.1,98.5
				c0,4.6,1.2,5.9,5.8,5.8c46.5-0.2,93-0.1,139.4-0.1c1.6,0,3.3-0.1,5.1-0.2c0.1-1.4,0.4-2.5,0.4-3.7c0-34.7,0-69.3,0-104
				c0-1.4-0.2-3.2-1-4.2c-6.6-7.7-13.5-15.2-20.2-22.7c-0.4,0.2-0.8,0.3-1.2,0.5c0,35.7,0,71.4,0,106.6c-36.6,0-72.6,0-108.9,0
				c0-2.7,0-4.7,0-6.6c0-17.7,0-35.3-0.1-53c0-1.7-0.2-3.9-1.3-5.1C289.8-164.6,284.1-170.2,278.5-175.8z M254.4-204.5
				c-0.2,1-0.3,1.5-0.3,2c0,37.3,0,74.7,0,112c0,1.1,0,2.6,0.7,3.3c6,6,12.2,11.8,19.5,18.7c0-38.9,0-76.1,0-113.2
				c35.9,0,71.3,0,107,0c0,19.2,0,38.1,0,56.9c0,1.6-0.3,3.9,0.6,4.8c6.4,6.6,13.1,12.9,19.9,19.5c0-34.8,0-69.3,0-103.9
				C352.6-204.5,303.7-204.5,254.4-204.5z M377.8-156.8c-26.2,0-51.9,0-77.6,0c0,11.9,0,23.4,0,35c26,0,51.7,0,77.6,0
				C377.8-133.6,377.8-145,377.8-156.8z M398.6-97.6c0.2-0.4,0.5-0.7,0.7-1.1c-5.6-5.4-11.2-10.6-16.6-16.2
				c-2.2-2.3-4.5-3.4-7.8-3.3c-23.3,0.1-46.6,0.1-69.9,0.1c-1.6,0-3.2,0.2-4.7,0.2c0,7.1,0,13.6,0,20.2
				C333.3-97.6,365.9-97.6,398.6-97.6z M280.3-178.8c5.6,5.6,10.1,10.4,15.1,14.7c2,1.8,5.1,3.2,7.7,3.3c23.1,0.2,46.3,0.2,69.4,0.1
				c1.7,0,3.5-0.2,5.2-0.3c0-6.3,0-12,0-17.9C345.5-178.8,313.7-178.8,280.3-178.8z"/>
			<path d="M194.2-149.1c0,6.8-0.2,13.1,0.1,19.3c0.2,3.5-1.1,5.3-4.2,6.8c-23.7,11.7-47.3,23.5-70.9,35.4
				C96.7-76.3,74.5-64.8,52.6-53.7c-5.5-3.6-10.5-7.3-15.9-10.4c-3.4-1.9-4.8-4-4.8-8.2c0.2-35,0.1-70,0.1-104.9
				c0-2.4-0.3-4.9-0.4-7.9c8-2.9,16.4-6,24.8-9c12.5-4.5,25-8.7,37.4-13.4c4.7-1.8,8-1.7,12.5,1.3c21.7,14.4,43.7,28.2,65.6,42.3
				C179.7-158.8,187.3-153.6,194.2-149.1z M68.5-88c-0.3-0.9-0.6-1.4-0.6-1.8c0-22.8-0.1-45.7,0.1-68.5c0-1.5,1.9-3.7,3.5-4.5
				c6.2-2.8,12.6-5.1,18.8-7.9c1.3-0.6,3-1.9,3.1-3.1c0.4-4.1,0.1-8.2,0.1-12.8c-2,0.5-3.3,0.7-4.5,1.1c-9.7,3.4-19.3,7-29.1,10.1
				c-4.2,1.3-5.6,3.3-5.6,7.8c0.2,34.2,0.1,68.3,0.1,102.5c0,1.8,0,3.6,0,6.4c9.6-5,18.4-9.7,27.2-14.1c21.7-10.9,43.4-21.7,65-32.6
				c14-7,27.9-14.1,41.8-21.3c1.1-0.5,2.2-2.1,2.2-3.2c0.2-5.1,0.1-10.2,0.1-16.1C149.7-126.3,109.2-107.2,68.5-88z M71.1-92.9
				c39.5-18.7,78.4-37.1,117.5-55.7c-6.2-4.1-11.6-7.8-17-11.2c-22.4-14.5-45-28.8-67.3-43.4c-2.8-1.8-5-2.6-8.2-1.5
				c-10.3,3.7-20.6,7.2-30.9,11c-8.7,3.1-17.3,6.5-26.6,9.9c2.4,1.5,4.3,2.5,6,3.8c5.9,4.3,11.6,3.8,18.1,1
				c9.6-4.1,19.5-7.4,29.4-10.7c2-0.7,4.9-0.3,6.7,0.8c10.6,6.2,20.9,12.8,31.3,19.3c10.1,6.4,20.2,12.9,31.3,20
				c-17.7,7.9-34.4,15.3-51.2,22.8c-12.3,5.5-24.6,10.8-36.8,16.4c-1.1,0.5-2.3,2-2.4,3.1C70.9-102.8,71.1-98.2,71.1-92.9z
				 M135.8-142c-13.3-8.7-25.7-16.9-38.2-24.9c-1.3-0.9-3.7-0.9-5.3-0.4c-6.1,2.2-12.1,4.6-17.9,7.3c-1.5,0.7-3.1,2.9-3.1,4.5
				c-0.3,9.5-0.1,19-0.1,28.5c0,4.3,0,8.5,0,13.7C93-123.1,114.1-132.4,135.8-142z M35.9-180.6c-0.2,1.1-0.5,1.9-0.5,2.7
				c0,35.3,0,70.6,0,105.9c0,1.2,0.3,3,1.2,3.6c4.5,3.1,9.3,5.9,14.4,9.1c0.1-1.6,0.2-2.2,0.2-2.9c0-35.6-0.1-71.3,0.1-106.9
				c0-3.6-1.7-5.1-4.3-6.4C43.5-177.3,40-178.7,35.9-180.6z M96.9-186.2c0,4.6-0.3,8,0.1,11.4c0.2,1.7,1.2,3.8,2.5,4.7
				c12.5,8.4,25.1,16.5,37.8,24.7c1,0.6,2.6,1.3,3.5,0.9c4.2-1.7,8.3-3.7,13.5-6.1C134.8-162.7,116.3-174.1,96.9-186.2z"/>
			<path d="M-196.6-81.8c23.6-38.2,47.1-76.3,70.5-114.4c1.5-2.5,3.2-3.8,6.3-3.7c7,0.3,14,0.2,21,0c3-0.1,4.9,0.9,6.5,3.4
				c16.3,25.4,32.8,50.6,49.2,76c7.5,11.5,14.8,23.2,22.4,34.7c2.3,3.5,1.6,5.9-1,8.7c-5.7,6.3-11,12.8-16.8,19
				c-1.2,1.3-3.4,2.2-5.1,2.2c-43.8,0.1-87.7,0.1-131.5,0c-1.8,0-4.3-1.2-5.4-2.7C-186-66.1-191.1-73.8-196.6-81.8z M-95.7-194.6
				c-18.4,30.4-36.5,60.1-55,90.6c7.2,0,13.4-0.2,19.5,0.1c2.9,0.1,4.5-1,5.9-3.3c7.7-12.2,15.4-24.3,23.2-36.4c1.9-3,4-5.8,6.5-9.3
				C-77-121.7-59-91.4-41-60.8c5.1-5.9,9.5-11.6,14.7-16.7c3.2-3.1,3.3-5.3,0.9-8.8c-9.9-14.9-19.7-29.9-29.4-44.9
				C-68.2-151.9-81.6-172.8-95.7-194.6z M-156.6-100.7c19.5-32.1,38.4-63.4,57.9-95.5c-7.9,0-14.4-0.1-20.9,0.1
				c-1.3,0.1-3.1,1.2-3.9,2.4c-9.5,15-18.8,30-28.1,45.1c-10.3,16.6-20.6,33.2-30.8,49.9c-3,4.9-5.8,9.8-9.1,15.4
				c36.9,0,72.8,0,109.5,0c-3-4.7-6-8.7-8-13.1c-1.7-3.7-4.1-4.4-7.7-4.3c-12.3,0.2-24.6,0.1-37,0.1
				C-141.7-100.7-148.6-100.7-156.6-100.7z M-95.7-146.8c-3.7,5.9-7.2,11.1-10.3,16.5c-0.5,0.9,0,2.9,0.6,3.9
				c7.2,11.3,14.6,22.5,21.9,33.8c2.6,4,4.9,8.1,7.9,13c-39,0-77,0-115.6,0c4.4,6.1,8.3,11.4,12,16.9c1.7,2.7,3.6,3.7,6.9,3.7
				c41.1-0.1,82.3-0.1,123.4-0.1c1.4,0,2.7-0.2,4.7-0.4C-61.6-88.8-78.4-117.4-95.7-146.8z M-109.3-126.4c-4.8,7.9-9,14.8-13.4,22.1
				c9.3,0,18,0,27.6,0C-99.9-111.8-104.3-118.6-109.3-126.4z"/>
			<path class="st0" d="M278.5-175.8c5.6,5.7,11.3,11.2,16.7,17c1,1.1,1.2,3.3,1.3,5.1c0.1,17.7,0.1,35.3,0.1,53c0,2,0,4,0,6.6
				c36.3,0,72.3,0,108.9,0c0-35.2,0-70.9,0-106.6c0.4-0.2,0.8-0.3,1.2-0.5c6.8,7.5,13.6,15,20.2,22.7c0.8,1,1,2.7,1,4.2
				c0.1,34.7,0,69.3,0,104c0,1.1-0.2,2.2-0.4,3.7c-1.8,0.1-3.5,0.2-5.1,0.2c-46.5,0-93-0.1-139.4,0.1c-4.6,0-5.8-1.2-5.8-5.8
				c0.2-32.8,0.1-65.6,0.1-98.5c0-1.5,0-2.9,0-4.4C277.7-175.4,278.1-175.6,278.5-175.8z"/>
			<path class="st0" d="M254.4-204.5c49.2,0,98.2,0,147.4,0c0,34.7,0,69.1,0,103.9c-6.8-6.6-13.5-12.9-19.9-19.5
				c-0.9-0.9-0.6-3.2-0.6-4.8c0-18.8,0-37.6,0-56.9c-35.7,0-71.1,0-107,0c0,37.1,0,74.4,0,113.2c-7.2-6.9-13.4-12.7-19.5-18.7
				c-0.7-0.7-0.7-2.2-0.7-3.3c0-37.3,0-74.7,0-112C254.1-203,254.3-203.5,254.4-204.5z"/>
			<path class="st0" d="M377.8-156.8c0,11.8,0,23.2,0,35c-25.8,0-51.5,0-77.6,0c0-11.6,0-23.1,0-35
				C325.9-156.8,351.6-156.8,377.8-156.8z"/>
			<path class="st0" d="M398.6-97.6c-32.7,0-65.3,0-98.3,0c0-6.6,0-13.2,0-20.2c1.5-0.1,3.1-0.2,4.7-0.2c23.3,0,46.6,0.1,69.9-0.1
				c3.3,0,5.5,1,7.8,3.3c5.4,5.5,11.1,10.8,16.6,16.2C399.1-98.3,398.8-97.9,398.6-97.6z"/>
			<path class="st0" d="M280.3-178.8c33.5,0,65.2,0,97.4,0c0,5.9,0,11.6,0,17.9c-1.7,0.1-3.4,0.3-5.2,0.3c-23.1,0-46.3,0.1-69.4-0.1
				c-2.6,0-5.7-1.5-7.7-3.3C290.4-168.3,285.9-173.2,280.3-178.8z"/>
			<path class="st0" d="M68.5-88c40.7-19.2,81.2-38.3,122.4-57.8c0,5.9,0.1,11-0.1,16.1c-0.1,1.1-1.2,2.7-2.2,3.2
				c-13.9,7.2-27.8,14.2-41.8,21.3c-21.7,10.9-43.4,21.7-65,32.6c-8.9,4.5-17.6,9.1-27.2,14.1c0-2.8,0-4.6,0-6.4
				c0-34.2,0.1-68.3-0.1-102.5c0-4.5,1.4-6.4,5.6-7.8c9.8-3.1,19.4-6.8,29.1-10.1c1.2-0.4,2.5-0.6,4.5-1.1c0,4.6,0.2,8.7-0.1,12.8
				c-0.1,1.1-1.8,2.5-3.1,3.1c-6.2,2.7-12.6,5-18.8,7.9c-1.6,0.7-3.5,2.9-3.5,4.5c-0.2,22.8-0.1,45.7-0.1,68.5
				C67.9-89.3,68.2-88.9,68.5-88z"/>
			<path class="st0" d="M71.1-92.9c0-5.4-0.2-10,0.1-14.6c0.1-1.1,1.3-2.7,2.4-3.1c12.2-5.6,24.5-10.9,36.8-16.4
				c16.8-7.4,33.5-14.9,51.2-22.8c-11.1-7.1-21.1-13.6-31.3-20c-10.4-6.5-20.8-13.1-31.3-19.3c-1.8-1.1-4.8-1.4-6.7-0.8
				c-9.9,3.3-19.9,6.6-29.4,10.7c-6.5,2.8-12.3,3.3-18.1-1c-1.7-1.2-3.6-2.3-6-3.8c9.3-3.5,17.9-6.8,26.6-9.9
				c10.3-3.7,20.6-7.2,30.9-11c3.2-1.2,5.4-0.3,8.2,1.5c22.4,14.6,44.9,28.9,67.3,43.4c5.4,3.5,10.8,7.1,17,11.2
				C149.5-130,110.6-111.6,71.1-92.9z"/>
			<path class="st0" d="M135.8-142c-21.7,9.6-42.8,18.9-64.7,28.6c0-5.2,0-9.4,0-13.7c0-9.5-0.1-19,0.1-28.5c0-1.6,1.7-3.8,3.1-4.5
				c5.8-2.7,11.9-5.1,17.9-7.3c1.6-0.6,4-0.5,5.3,0.4C110.1-158.9,122.5-150.7,135.8-142z"/>
			<path class="st0" d="M35.9-180.6c4.1,1.9,7.6,3.4,11,5c2.6,1.3,4.3,2.8,4.3,6.4c-0.2,35.6-0.1,71.3-0.1,106.9
				c0,0.7-0.1,1.3-0.2,2.9c-5.1-3.2-9.8-6-14.4-9.1c-0.8-0.6-1.2-2.3-1.2-3.6c-0.1-35.3,0-70.6,0-105.9
				C35.3-178.7,35.6-179.5,35.9-180.6z"/>
			<path class="st0" d="M96.9-186.2c19.4,12,37.8,23.5,57.4,35.6c-5.2,2.4-9.3,4.4-13.5,6.1c-0.9,0.4-2.5-0.3-3.5-0.9
				c-12.6-8.2-25.3-16.3-37.8-24.7c-1.3-0.9-2.3-3-2.5-4.7C96.7-178.1,96.9-181.6,96.9-186.2z"/>
			<path class="st0" d="M-95.7-194.6c14,21.8,27.4,42.6,40.9,63.4c9.7,15,19.5,30,29.4,44.9c2.4,3.5,2.3,5.7-0.9,8.8
				c-5.2,5.1-9.6,10.8-14.7,16.7c-18-30.6-36-60.9-54.4-92.2c-2.5,3.5-4.6,6.3-6.5,9.3c-7.8,12.1-15.5,24.3-23.2,36.4
				c-1.5,2.3-3,3.5-5.9,3.3c-6.1-0.3-12.3-0.1-19.5-0.1C-132.1-134.4-114.1-164.2-95.7-194.6z"/>
			<path class="st0" d="M-156.6-100.7c8,0,15,0,21.9,0c12.3,0,24.6,0.1,37-0.1c3.7-0.1,6,0.6,7.7,4.3c2,4.4,5.1,8.4,8,13.1
				c-36.7,0-72.6,0-109.5,0c3.3-5.6,6.1-10.5,9.1-15.4c10.2-16.6,20.5-33.3,30.8-49.9c9.3-15.1,18.7-30.1,28.1-45.1
				c0.7-1.2,2.5-2.4,3.9-2.4c6.5-0.2,12.9-0.1,20.9-0.1C-118.2-164.1-137.1-132.8-156.6-100.7z"/>
			<path class="st0" d="M-95.7-146.8c17.3,29.4,34.2,58,51.4,87.4c-1.9,0.2-3.3,0.4-4.7,0.4c-41.1,0-82.3,0-123.4,0.1
				c-3.3,0-5.1-1.1-6.9-3.7c-3.6-5.5-7.6-10.8-12-16.9c38.6,0,76.6,0,115.6,0c-3-5-5.3-9.1-7.9-13c-7.3-11.3-14.6-22.5-21.9-33.8
				c-0.7-1.1-1.2-3-0.6-3.9C-102.9-135.7-99.4-140.9-95.7-146.8z"/>
			<path class="st0" d="M-109.3-126.4c5,7.8,9.4,14.6,14.1,22.1c-9.6,0-18.3,0-27.6,0C-118.2-111.6-114-118.5-109.3-126.4z"/>
		</g>
	</g>
</g>
</svg>
