<?xml version="1.0" encoding="utf-8"?>
<!-- Generator: Adobe Illustrator 24.1.0, SVG Export Plug-In . SVG Version: 6.00 Build 0)  -->
<svg version="1.1" id="Layer_1" xmlns="http://www.w3.org/2000/svg" xmlns:xlink="http://www.w3.org/1999/xlink" x="0px" y="0px"
	 viewBox="0 0 300 300" style="enable-background:new 0 0 300 300;" xml:space="preserve">
<style type="text/css">
	.st0{fill:#FFFFFF;}
</style>
<path d="M61.4,196.1c23.6-38.2,47.1-76.3,70.5-114.4c1.5-2.5,3.2-3.8,6.3-3.7c7,0.3,14,0.2,21,0c3-0.1,4.9,0.9,6.5,3.4
	c16.3,25.4,32.8,50.6,49.2,76c7.5,11.5,14.8,23.2,22.4,34.7c2.3,3.5,1.6,5.9-1,8.7c-5.7,6.3-11,12.8-16.8,19
	c-1.2,1.3-3.4,2.2-5.1,2.2c-43.8,0.1-87.7,0.1-131.5,0c-1.8,0-4.3-1.2-5.4-2.7C72,211.8,66.9,204.1,61.4,196.1z M162.3,83.3
	c-18.4,30.4-36.5,60.1-55,90.6c7.2,0,13.4-0.2,19.5,0.1c2.9,0.1,4.5-1,5.9-3.3c7.7-12.2,15.4-24.3,23.2-36.4c1.9-3,4-5.8,6.5-9.3
	c18.6,31.2,36.6,61.5,54.6,92.1c5.1-5.9,9.5-11.6,14.7-16.7c3.2-3.1,3.3-5.3,0.9-8.8c-9.9-14.9-19.7-29.9-29.4-44.9
	C189.8,126,176.4,105.1,162.3,83.3z M101.4,177.2c19.5-32.1,38.4-63.4,57.9-95.5c-7.9,0-14.4-0.1-20.9,0.1c-1.3,0.1-3.1,1.2-3.9,2.4
	c-9.5,15-18.8,30-28.1,45.1c-10.3,16.6-20.6,33.2-30.8,49.9c-3,4.9-5.8,9.8-9.1,15.4c36.9,0,72.8,0,109.5,0c-3-4.7-6-8.7-8-13.1
	c-1.7-3.7-4.1-4.4-7.7-4.3c-12.3,0.2-24.6,0.1-37,0.1C116.3,177.2,109.4,177.2,101.4,177.2z M162.3,131.1
	c-3.7,5.9-7.2,11.1-10.3,16.5c-0.5,0.9,0,2.9,0.6,3.9c7.2,11.3,14.6,22.5,21.9,33.8c2.6,4,4.9,8.1,7.9,13c-39,0-77,0-115.6,0
	c4.4,6.1,8.3,11.4,12,16.9c1.7,2.7,3.6,3.7,6.9,3.7c41.1-0.1,82.3-0.1,123.4-0.1c1.4,0,2.7-0.2,4.7-0.4
	C196.4,189.1,179.6,160.5,162.3,131.1z M148.7,151.5c-4.8,7.9-9,14.8-13.4,22.1c9.3,0,18,0,27.6,0
	C158.1,166.1,153.7,159.3,148.7,151.5z"/>
<path class="st0" d="M162.3,83.3c14,21.8,27.4,42.6,40.9,63.4c9.7,15,19.5,30,29.4,44.9c2.4,3.5,2.3,5.7-0.9,8.8
	c-5.2,5.1-9.6,10.8-14.7,16.7c-18-30.6-36-60.9-54.4-92.2c-2.5,3.5-4.6,6.3-6.5,9.3c-7.8,12.1-15.5,24.3-23.2,36.4
	c-1.5,2.3-3,3.5-5.9,3.3c-6.1-0.3-12.3-0.1-19.5-0.1C125.9,143.5,143.9,113.7,162.3,83.3z"/>
<path class="st0" d="M101.4,177.2c8,0,15,0,21.9,0c12.3,0,24.6,0.1,37-0.1c3.7-0.1,6,0.6,7.7,4.3c2,4.4,5.1,8.4,8,13.1
	c-36.7,0-72.6,0-109.5,0c3.3-5.6,6.1-10.5,9.1-15.4c10.2-16.6,20.5-33.3,30.8-49.9c9.3-15.1,18.7-30.1,28.1-45.1
	c0.7-1.2,2.5-2.4,3.9-2.4c6.5-0.2,12.9-0.1,20.9-0.1C139.8,113.8,120.9,145.1,101.4,177.2z"/>
<path class="st0" d="M162.3,131.1c17.3,29.4,34.2,58,51.4,87.4c-1.9,0.2-3.3,0.4-4.7,0.4c-41.1,0-82.3,0-123.4,0.1
	c-3.3,0-5.1-1.1-6.9-3.7c-3.6-5.5-7.6-10.8-12-16.9c38.6,0,76.6,0,115.6,0c-3-5-5.3-9.1-7.9-13c-7.3-11.3-14.6-22.5-21.9-33.8
	c-0.7-1.1-1.2-3-0.6-3.9C155.1,142.2,158.6,137,162.3,131.1z"/>
</svg>
