<?xml version="1.0" encoding="utf-8"?>
<!-- Generator: Adobe Illustrator 24.1.0, SVG Export Plug-In . SVG Version: 6.00 Build 0)  -->
<svg version="1.1" id="Layer_1" xmlns="http://www.w3.org/2000/svg" xmlns:xlink="http://www.w3.org/1999/xlink" x="0px" y="0px"
	 viewBox="0 0 300 300" style="enable-background:new 0 0 300 300;" xml:space="preserve">
<style type="text/css">
	.st0{fill:#FFFFFF;}
</style>
<path d="M60.3,77.3c2.1,0,3.9,0,5.7,0c47.6,0,95.3,0,142.9-0.1c3.4,0,5.6,0.8,8,3.6c6.9,8,14.4,15.6,21.5,23.5
	c1,1.1,1.7,2.9,1.7,4.4c0.1,37,0.1,74,0,110.9c0,0.6-0.2,1.3-0.4,2.6c-2,0-3.9,0-5.8,0c-46.5,0-92.9,0-139.4,0
	c-2.8,0-5.6,0.5-8.4,0.6c-1,0-2.3-0.4-3-1.1c-7-6.6-14-13.1-20.8-19.9c-1.3-1.2-2.4-3.3-2.4-5c-0.1-39.1-0.1-78.3-0.1-117.4
	C59.9,78.9,60.1,78.4,60.3,77.3z M87.5,109.5c-0.4,0.2-0.8,0.4-1.2,0.7c0,1.5,0,2.9,0,4.4c0,32.8,0.1,65.6-0.1,98.5
	c0,4.6,1.2,5.9,5.8,5.8c46.5-0.2,93-0.1,139.4-0.1c1.6,0,3.3-0.1,5.1-0.2c0.1-1.4,0.4-2.5,0.4-3.7c0-34.7,0-69.3,0-104
	c0-1.4-0.2-3.2-1-4.2c-6.6-7.7-13.5-15.2-20.2-22.7c-0.4,0.2-0.8,0.3-1.2,0.5c0,35.7,0,71.4,0,106.6c-36.6,0-72.6,0-108.9,0
	c0-2.7,0-4.7,0-6.6c0-17.7,0-35.3-0.1-53c0-1.7-0.2-3.9-1.3-5.1C98.8,120.7,93.1,115.1,87.5,109.5z M63.4,80.8c-0.2,1-0.3,1.5-0.3,2
	c0,37.3,0,74.7,0,112c0,1.1,0,2.6,0.7,3.3c6,6,12.2,11.8,19.5,18.7c0-38.9,0-76.1,0-113.2c35.9,0,71.3,0,107,0c0,19.2,0,38.1,0,56.9
	c0,1.6-0.3,3.9,0.6,4.8c6.4,6.6,13.1,12.9,19.9,19.5c0-34.8,0-69.3,0-103.9C161.6,80.8,112.7,80.8,63.4,80.8z M186.8,128.5
	c-26.2,0-51.9,0-77.6,0c0,11.9,0,23.4,0,35c26,0,51.7,0,77.6,0C186.8,151.7,186.8,140.3,186.8,128.5z M207.6,187.7
	c0.2-0.4,0.5-0.7,0.7-1.1c-5.6-5.4-11.2-10.6-16.6-16.2c-2.2-2.3-4.5-3.4-7.8-3.3c-23.3,0.1-46.6,0.1-69.9,0.1
	c-1.6,0-3.2,0.2-4.7,0.2c0,7.1,0,13.6,0,20.2C142.3,187.7,174.9,187.7,207.6,187.7z M89.3,106.5c5.6,5.6,10.1,10.4,15.1,14.7
	c2,1.8,5.1,3.2,7.7,3.3c23.1,0.2,46.3,0.2,69.4,0.1c1.7,0,3.5-0.2,5.2-0.3c0-6.3,0-12,0-17.9C154.5,106.5,122.7,106.5,89.3,106.5z"
	/>
<path class="st0" d="M87.5,109.5c5.6,5.7,11.3,11.2,16.7,17c1,1.1,1.2,3.3,1.3,5.1c0.1,17.7,0.1,35.3,0.1,53c0,2,0,4,0,6.6
	c36.3,0,72.3,0,108.9,0c0-35.2,0-70.9,0-106.6c0.4-0.2,0.8-0.3,1.2-0.5c6.8,7.5,13.6,15,20.2,22.7c0.8,1,1,2.7,1,4.2
	c0.1,34.7,0,69.3,0,104c0,1.1-0.2,2.2-0.4,3.7c-1.8,0.1-3.5,0.2-5.1,0.2c-46.5,0-93-0.1-139.4,0.1c-4.6,0-5.8-1.2-5.8-5.8
	c0.2-32.8,0.1-65.6,0.1-98.5c0-1.5,0-2.9,0-4.4C86.7,109.9,87.1,109.7,87.5,109.5z"/>
<path class="st0" d="M63.4,80.8c49.2,0,98.2,0,147.4,0c0,34.7,0,69.1,0,103.9c-6.8-6.6-13.5-12.9-19.9-19.5
	c-0.9-0.9-0.6-3.2-0.6-4.8c0-18.8,0-37.6,0-56.9c-35.7,0-71.1,0-107,0c0,37.1,0,74.4,0,113.2c-7.2-6.9-13.4-12.7-19.5-18.7
	c-0.7-0.7-0.7-2.2-0.7-3.3c0-37.3,0-74.7,0-112C63.1,82.3,63.3,81.8,63.4,80.8z"/>
<path class="st0" d="M207.6,187.7c-32.7,0-65.3,0-98.3,0c0-6.6,0-13.2,0-20.2c1.5-0.1,3.1-0.2,4.7-0.2c23.3,0,46.6,0.1,69.9-0.1
	c3.3,0,5.5,1,7.8,3.3c5.4,5.5,11.1,10.8,16.6,16.2C208.1,187,207.8,187.4,207.6,187.7z"/>
<path class="st0" d="M89.3,106.5c33.5,0,65.2,0,97.4,0c0,5.9,0,11.6,0,17.9c-1.7,0.1-3.4,0.3-5.2,0.3c-23.1,0-46.3,0.1-69.4-0.1
	c-2.6,0-5.7-1.5-7.7-3.3C99.4,117,94.9,112.1,89.3,106.5z"/>
</svg>
