<?xml version="1.0" encoding="utf-8"?>
<!-- Generator: Adobe Illustrator 24.1.0, SVG Export Plug-In . SVG Version: 6.00 Build 0)  -->
<svg version="1.1" id="Layer_1" xmlns="http://www.w3.org/2000/svg" xmlns:xlink="http://www.w3.org/1999/xlink" x="0px" y="0px"
	 viewBox="0 0 300 300" style="enable-background:new 0 0 300 300;" xml:space="preserve">
<style type="text/css">
	.st0{fill:#FFFFFF;}
</style>
<g id="TndWNQ_1_">
	<g>
		<g>
			<path d="M231.2,132.1c0,6.8-0.2,13.1,0.1,19.3c0.2,3.5-1.1,5.3-4.2,6.8c-23.7,11.7-47.3,23.5-70.9,35.4
				c-22.5,11.3-44.7,22.8-66.6,33.9c-5.5-3.6-10.5-7.3-15.9-10.4c-3.4-1.9-4.8-4-4.8-8.2c0.2-35,0.1-70,0.1-104.9
				c0-2.4-0.3-4.9-0.4-7.9c8-2.9,16.4-6,24.8-9c12.5-4.5,25-8.7,37.4-13.4c4.7-1.8,8-1.7,12.5,1.3c21.7,14.4,43.7,28.2,65.6,42.3
				C216.7,122.4,224.3,127.6,231.2,132.1z M105.5,193.2c-0.3-0.9-0.6-1.4-0.6-1.8c0-22.8-0.1-45.7,0.1-68.5c0-1.5,1.9-3.7,3.5-4.5
				c6.2-2.8,12.6-5.1,18.8-7.9c1.3-0.6,3-1.9,3.1-3.1c0.4-4.1,0.1-8.2,0.1-12.8c-2,0.5-3.3,0.7-4.5,1.1c-9.7,3.4-19.3,7-29.1,10.1
				c-4.2,1.3-5.6,3.3-5.6,7.8c0.2,34.2,0.1,68.3,0.1,102.5c0,1.8,0,3.6,0,6.4c9.6-5,18.4-9.7,27.2-14.1c21.7-10.9,43.4-21.7,65-32.6
				c14-7,27.9-14.1,41.8-21.3c1.1-0.5,2.2-2.1,2.2-3.2c0.2-5.1,0.1-10.2,0.1-16.1C186.7,154.9,146.2,174,105.5,193.2z M108.1,188.3
				c39.5-18.7,78.4-37.1,117.5-55.7c-6.2-4.1-11.6-7.8-17-11.2c-22.4-14.5-45-28.8-67.3-43.4c-2.8-1.8-5-2.6-8.2-1.5
				c-10.3,3.7-20.6,7.2-30.9,11c-8.7,3.1-17.3,6.5-26.6,9.9c2.4,1.5,4.3,2.5,6,3.8c5.9,4.3,11.6,3.8,18.1,1
				c9.6-4.1,19.5-7.4,29.4-10.7c2-0.7,4.9-0.3,6.7,0.8c10.6,6.2,20.9,12.8,31.3,19.3c10.1,6.4,20.2,12.9,31.3,20
				c-17.7,7.9-34.4,15.3-51.2,22.8c-12.3,5.5-24.6,10.8-36.8,16.4c-1.1,0.5-2.3,2-2.4,3.1C107.9,178.4,108.1,183,108.1,188.3z
				 M172.8,139.2c-13.3-8.7-25.7-16.9-38.2-24.9c-1.3-0.9-3.7-0.9-5.3-0.4c-6.1,2.2-12.1,4.6-17.9,7.3c-1.5,0.7-3.1,2.9-3.1,4.5
				c-0.3,9.5-0.1,19-0.1,28.5c0,4.3,0,8.5,0,13.7C130,158.1,151.1,148.8,172.8,139.2z M72.9,100.6c-0.2,1.1-0.5,1.9-0.5,2.7
				c0,35.3,0,70.6,0,105.9c0,1.2,0.3,3,1.2,3.6c4.5,3.1,9.3,5.9,14.4,9.1c0.1-1.6,0.2-2.2,0.2-2.9c0-35.6-0.1-71.3,0.1-106.9
				c0-3.6-1.7-5.1-4.3-6.4C80.5,103.9,77,102.5,72.9,100.6z M133.9,95c0,4.6-0.3,8,0.1,11.4c0.2,1.7,1.2,3.8,2.5,4.7
				c12.5,8.4,25.1,16.5,37.8,24.7c1,0.6,2.6,1.3,3.5,0.9c4.2-1.7,8.3-3.7,13.5-6.1C171.8,118.5,153.3,107.1,133.9,95z"/>
			<path class="st0" d="M105.5,193.2c40.7-19.2,81.2-38.3,122.4-57.8c0,5.9,0.1,11-0.1,16.1c-0.1,1.1-1.2,2.7-2.2,3.2
				c-13.9,7.2-27.8,14.2-41.8,21.3c-21.7,10.9-43.4,21.7-65,32.6c-8.9,4.5-17.6,9.1-27.2,14.1c0-2.8,0-4.6,0-6.4
				c0-34.2,0.1-68.3-0.1-102.5c0-4.5,1.4-6.4,5.6-7.8c9.8-3.1,19.4-6.8,29.1-10.1c1.2-0.4,2.5-0.6,4.5-1.1c0,4.6,0.2,8.7-0.1,12.8
				c-0.1,1.1-1.8,2.5-3.1,3.1c-6.2,2.7-12.6,5-18.8,7.9c-1.6,0.7-3.5,2.9-3.5,4.5c-0.2,22.8-0.1,45.7-0.1,68.5
				C104.9,191.9,105.2,192.3,105.5,193.2z"/>
			<path class="st0" d="M108.1,188.3c0-5.4-0.2-10,0.1-14.6c0.1-1.1,1.3-2.7,2.4-3.1c12.2-5.6,24.5-10.9,36.8-16.4
				c16.8-7.4,33.5-14.9,51.2-22.8c-11.1-7.1-21.1-13.6-31.3-20c-10.4-6.5-20.8-13.1-31.3-19.3c-1.8-1.1-4.8-1.4-6.7-0.8
				c-9.9,3.3-19.9,6.6-29.4,10.7c-6.5,2.8-12.3,3.3-18.1-1c-1.7-1.2-3.6-2.3-6-3.8c9.3-3.5,17.9-6.8,26.6-9.9
				c10.3-3.7,20.6-7.2,30.9-11c3.2-1.2,5.4-0.3,8.2,1.5c22.4,14.6,44.9,28.9,67.3,43.4c5.4,3.5,10.8,7.1,17,11.2
				C186.5,151.2,147.6,169.6,108.1,188.3z"/>
			<path class="st0" d="M72.9,100.6c4.1,1.9,7.6,3.4,11,5c2.6,1.3,4.3,2.8,4.3,6.4c-0.2,35.6-0.1,71.3-0.1,106.9
				c0,0.7-0.1,1.3-0.2,2.9c-5.1-3.2-9.8-6-14.4-9.1c-0.8-0.6-1.2-2.3-1.2-3.6c-0.1-35.3,0-70.6,0-105.9
				C72.3,102.5,72.6,101.7,72.9,100.6z"/>
			<path class="st0" d="M133.9,95c19.4,12,37.8,23.5,57.4,35.6c-5.2,2.4-9.3,4.4-13.5,6.1c-0.9,0.4-2.5-0.3-3.5-0.9
				c-12.6-8.2-25.3-16.3-37.8-24.7c-1.3-0.9-2.3-3-2.5-4.7C133.7,103.1,133.9,99.6,133.9,95z"/>
		</g>
	</g>
</g>
</svg>
